PathFileType	3	(X/Y/Z)	D:\VICON_DB\Goncalves\Pilot01\09-03-2026\static_01.trc
DataRate	CameraRate	NumFrames	NumMarkers	Units	OrigDataRate	OrigDataStartFrame	OrigNumFrames
200.0	200.0	7	40	mm	200.0	1	321
Frame#	Time	LASI			RASI			LPSI			RPSI			LTHI			LTHAP			LTHAD			LKNE			LKNM			LTIB			LTIAP			LTIAD			LANK			LMED			LHEE			LTOE			LFMH			LSMH			LVMH			RTHI			RTHAP			RTHAD			RKNE			RKNM			RTIB			RTIAP			RTIAD			RANK			RMED			RHEE			RTOE			RFMH			RSMH			RVMH			RHJC			LHJC			RKJC			LKJC			RAJC			LAJC
		X1	Y1	Z1	X2	Y2	Z2	X3	Y3	Z3	X4	Y4	Z4	X5	Y5	Z5	X6	Y6	Z6	X7	Y7	Z7	X8	Y8	Z8	X9	Y9	Z9	X10	Y10	Z10	X11	Y11	Z11	X12	Y12	Z12	X13	Y13	Z13	X14	Y14	Z14	X15	Y15	Z15	X16	Y16	Z16	X17	Y17	Z17	X18	Y18	Z18	X19	Y19	Z19	X20	Y20	Z20	X21	Y21	Z21	X22	Y22	Z22	X23	Y23	Z23	X24	Y24	Z24	X25	Y25	Z25	X26	Y26	Z26	X27	Y27	Z27	X28	Y28	Z28	X29	Y29	Z29	X30	Y30	Z30	X31	Y31	Z31	X32	Y32	Z32	X33	Y33	Z33	X34	Y34	Z34	X35	Y35	Z35	X36	Y36	Z36	X37	Y37	Z37	X38	Y38	Z38	X39	Y39	Z39	X40	Y40	Z40
1	0.000000	117.508910	903.414860	-1064.221700	111.635570	904.389710	-1329.680100	307.261990	960.374080	-1171.060100	306.746090	954.621090	-1231.254800	124.303750	693.886660	-1032.343800	141.873600	767.709350	-1018.912400	168.450580	629.864260	-1008.442900	220.842820	474.672360	-1025.027700	197.065780	464.557280	-1153.153100	258.096500	281.603490	-1005.196400	200.622540	357.088870	-1060.369100	216.243420	254.740200	-1032.790800	272.930420	70.421844	-1027.243900	239.087100	80.915634	-1108.277000	314.902070	61.914459	-1080.869000	191.095490	71.657593	-1047.685800	133.926280	44.779858	-1072.968300	133.623050	39.177475	-1032.757200	149.998570	24.777773	-993.995610	156.563490	625.912050	-1381.342700	119.461220	751.849180	-1358.070700	103.659830	659.901790	-1335.878400	205.851170	490.482970	-1364.997800	204.450700	434.119840	-1244.746300	226.327990	296.222530	-1383.331300	186.938890	346.223050	-1328.436400	192.418870	264.830080	-1331.161000	269.003970	61.959827	-1355.621500	233.662400	89.728828	-1276.058200	305.040410	58.032074	-1314.085400	176.568850	68.987373	-1340.291500	126.098590	49.256615	-1315.108800	123.815710	40.479546	-1351.301000	139.806670	20.567457	-1388.920000	192.470492	832.531001	-1293.883691	196.669845	831.833998	-1104.084818	205.150935	462.301405	-1304.872050	208.954300	469.614820	-1089.090400	251.333185	75.844327	-1315.839850	256.008760	75.668739	-1067.760450
2	0.005000	117.570930	903.422360	-1064.295000	111.724720	904.413940	-1329.717400	307.140010	960.383060	-1171.550200	306.791780	954.609680	-1231.326700	124.334260	693.908630	-1032.406900	141.926380	767.725160	-1018.981900	168.493060	629.882200	-1008.489900	220.845980	474.693240	-1025.081100	197.088330	464.552030	-1153.176900	258.091740	281.622620	-1005.207400	200.628800	357.090640	-1060.416100	216.247420	254.755770	-1032.828000	272.956880	70.414116	-1027.267100	239.096330	80.890144	-1108.276000	314.913150	61.912815	-1080.877000	191.119250	71.668777	-1047.652600	133.926320	44.781487	-1072.981000	133.614810	39.184341	-1032.779800	149.999280	24.789013	-994.008240	156.638180	625.927120	-1381.402200	119.553990	751.837280	-1358.103500	103.746920	659.916440	-1335.903000	205.891330	490.480900	-1365.032100	204.436600	434.114110	-1244.778700	226.359590	296.221530	-1383.381300	186.973250	346.226840	-1328.453600	192.434770	264.847050	-1331.194800	269.003540	61.955242	-1355.653000	232.942350	90.662720	-1275.308200	305.032560	58.036339	-1314.113500	176.586820	68.987526	-1340.287700	126.109840	49.256664	-1315.126800	123.812360	40.476158	-1351.292000	139.846980	20.496565	-1388.905200	192.531909	832.561124	-1293.923189	196.711908	831.852152	-1104.148047	205.163965	462.297505	-1304.905400	208.967155	469.622635	-1089.129000	250.972945	76.308981	-1315.480600	256.026605	75.652130	-1067.771550
3	0.010000	117.634760	903.442690	-1064.368500	111.798910	904.430790	-1329.778200	306.376010	960.260010	-1172.460000	306.896180	954.611390	-1231.379400	124.373090	693.912540	-1032.472200	141.982350	767.730530	-1019.048100	168.531570	629.899780	-1008.541800	220.867940	474.708860	-1025.126600	197.109820	464.541720	-1153.218300	258.107180	281.636960	-1005.237000	200.636870	357.100800	-1060.432900	216.261370	254.764050	-1032.855000	273.173680	70.359520	-1027.416600	239.104570	80.898804	-1108.277300	314.905240	61.912605	-1080.883500	191.090580	71.662628	-1047.718400	133.925370	44.784454	-1072.999000	133.634170	39.198753	-1032.776600	150.003680	24.802114	-994.013240	156.678890	625.941650	-1381.474000	119.806640	751.873050	-1357.987500	103.973680	659.869380	-1335.716300	205.937700	490.494840	-1365.091600	204.549580	434.122740	-1244.801000	226.388820	296.203950	-1383.392900	187.015530	346.231540	-1328.481700	192.433930	264.854430	-1331.244600	269.030520	62.089478	-1355.851400	232.927540	90.588615	-1275.341600	305.044310	58.041336	-1314.122900	176.594470	68.990662	-1340.312600	126.115530	49.260971	-1315.127200	123.806180	40.483269	-1351.307500	139.802150	20.574949	-1388.930200	192.521791	832.567410	-1293.980410	196.694399	831.860923	-1104.213637	205.243640	462.308790	-1304.946300	208.988880	469.625290	-1089.172450	250.979030	76.339046	-1315.596500	256.139125	75.629162	-1067.846950
4	0.015000	117.695300	903.442140	-1064.432600	111.895640	904.427190	-1329.818000	307.066010	960.424070	-1171.990000	306.946900	954.600650	-1231.440600	124.431880	693.928890	-1032.529700	142.026410	767.757140	-1019.125800	168.569320	629.928100	-1008.594300	220.897990	474.718930	-1025.163100	197.140320	464.539730	-1153.241700	258.105410	281.652950	-1005.257800	200.645260	357.115690	-1060.470300	216.265440	254.775680	-1032.877100	273.153840	70.394867	-1027.438100	239.103560	80.913094	-1108.294600	314.916930	61.908432	-1080.875900	191.123890	71.684319	-1047.686300	133.932160	44.803780	-1072.988800	133.626100	39.210991	-1032.791900	149.998760	24.811464	-994.025570	156.729290	625.960750	-1381.567700	119.674170	751.920650	-1358.294200	104.042560	659.905090	-1335.779300	205.979290	490.501500	-1365.140400	204.582440	434.153750	-1244.847900	226.405940	296.235780	-1383.459800	187.051860	346.243680	-1328.499300	192.485600	264.869660	-1331.250400	269.034580	62.073967	-1355.869500	232.923890	90.403282	-1275.415000	305.039920	58.027367	-1314.131700	176.608280	68.974205	-1340.304600	126.103740	49.268929	-1315.146900	123.811190	40.498749	-1351.328600	139.818770	20.571840	-1388.941700	192.680014	832.590542	-1294.014188	196.826776	831.886231	-1104.263410	205.280865	462.327625	-1304.994150	209.019155	469.629330	-1089.202400	250.979235	76.238625	-1315.642250	256.128700	75.653981	-1067.866350
5	0.020000	117.748530	903.462340	-1064.514900	111.917500	904.509030	-1329.990500	306.832000	960.168090	-1171.650000	307.024570	954.586850	-1231.486000	124.477860	693.943910	-1032.581400	142.077270	767.765080	-1019.188300	168.610170	629.941590	-1008.642800	220.931300	474.736510	-1025.195200	197.133680	464.543180	-1153.305400	258.131010	281.667720	-1005.264200	200.645540	357.111330	-1060.505100	216.275250	254.790100	-1032.911700	272.948640	70.497177	-1027.333300	239.442630	80.910934	-1108.000900	314.905980	61.914600	-1080.873200	191.049260	71.819603	-1047.655500	133.934560	44.811604	-1073.006700	133.639790	39.203308	-1032.803000	149.953900	24.874907	-993.943970	156.566010	626.341370	-1381.826300	119.807650	751.904790	-1358.312400	103.926870	659.992370	-1336.105500	206.013230	490.510860	-1365.206400	204.669650	434.139310	-1244.871300	226.445240	296.212830	-1383.481900	187.061370	346.261440	-1328.569200	192.633790	264.848720	-1331.328000	269.045070	62.063950	-1355.848900	232.974620	90.624290	-1275.362200	305.034970	58.026413	-1314.149300	176.584920	69.006081	-1340.338700	126.119520	49.269680	-1315.139400	123.820220	40.499714	-1351.326000	139.809310	20.571890	-1388.929800	192.622117	832.568249	-1294.195266	196.791198	831.819885	-1104.385004	205.341440	462.325085	-1305.038850	209.032490	469.639845	-1089.250300	251.009845	76.344120	-1315.605550	256.195635	75.704055	-1067.667100
6	0.025000	117.793690	903.461670	-1064.577400	111.999530	904.533200	-1330.070600	307.773010	960.376040	-1171.380000	307.107880	954.582760	-1231.539400	124.530400	693.959530	-1032.624500	142.132220	767.778260	-1019.234400	168.644650	629.947080	-1008.704900	220.945100	474.739290	-1025.232700	197.163100	464.542970	-1153.334800	258.144710	281.675350	-1005.264800	200.646120	357.135130	-1060.538500	216.293950	254.789230	-1032.931600	272.958860	70.438339	-1027.341700	239.122790	80.917137	-1108.268100	314.894840	61.917553	-1080.890500	191.127180	71.707527	-1047.713600	133.937910	44.812584	-1073.016400	133.652100	39.211090	-1032.802600	149.900180	24.943731	-993.847600	156.826690	626.021300	-1381.711200	119.872630	751.934880	-1358.399700	104.157600	659.945980	-1335.927700	206.068150	490.508450	-1365.267800	204.560240	434.216220	-1244.961700	226.456180	296.196290	-1383.502700	187.096590	346.244960	-1328.588500	192.676390	264.854800	-1331.340600	269.020050	61.936821	-1355.674100	232.959630	90.591148	-1275.396500	305.040800	58.039097	-1314.158000	176.595260	69.001389	-1340.341800	126.107470	49.275593	-1315.162800	123.813640	40.503773	-1351.328100	139.814000	20.574038	-1388.948400	192.793678	832.600478	-1294.269904	196.936377	831.834357	-1104.447987	205.314195	462.362335	-1305.114750	209.054100	469.641130	-1089.283750	250.989840	76.263985	-1315.535300	256.040825	75.677738	-1067.804900
7	0.030000	117.846570	903.480410	-1064.646500	112.107320	904.552490	-1330.120100	308.061040	960.312070	-1171.270100	307.202330	954.587220	-1231.568500	124.573000	693.987490	-1032.683700	142.175870	767.776730	-1019.303600	168.679400	629.956540	-1008.748400	220.966050	474.737460	-1025.279400	197.204180	464.544710	-1153.353600	258.162380	281.666870	-1005.278400	200.668290	357.140080	-1060.575300	216.302170	254.793350	-1032.955600	272.951570	70.484001	-1027.325700	239.146840	80.907631	-1108.258700	314.904790	61.904179	-1080.895000	191.087130	71.776192	-1047.699100	133.928910	44.821182	-1073.029300	133.653370	39.215061	-1032.810300	149.249710	25.572012	-992.965700	156.878270	626.055360	-1381.794200	119.959880	751.934390	-1358.473300	104.216750	659.966130	-1335.989000	206.114530	490.538790	-1365.324000	204.716550	434.164030	-1244.998800	226.474200	296.212950	-1383.537100	187.138370	346.266780	-1328.645300	192.698970	264.876340	-1331.366100	269.024480	61.926079	-1355.699500	232.953340	90.619156	-1275.392300	305.036160	58.049652	-1314.167000	176.585740	69.009727	-1340.359300	126.119350	49.276340	-1315.163300	123.814990	40.513584	-1351.342400	139.824130	20.508341	-1388.946500	192.886368	832.601252	-1294.306445	196.989833	831.834733	-1104.497398	205.415540	462.351410	-1305.161400	209.085115	469.641085	-1089.316500	250.988910	76.272617	-1315.545900	256.049205	75.695816	-1067.792200
